<svg xmlns="http://www.w3.org/2000/svg" viewBox="0 0 9600 4800" shape-rendering="geometricPrecision">
  <defs>
    <clipPath id="c">
      <rect width="9600" height="4800" rx="480" ry="480"/>
    </clipPath>
    <filter id="s" x="-4%" y="-8%" width="108%" height="120%">
      <feDropShadow dx="0" dy="60" stdDeviation="80" flood-color="#00000030"/>
    </filter>
  </defs>
  <g clip-path="url(#c)" filter="url(#s)">
    <path fill="#d52b1e" d="m0 0h2400l99 99h4602l99-99h2400v4800h-2400l-99-99h-4602l-99 99H0z"/>
    <path fill="#fff" d="m2400 0h4800v4800h-4800zm2490 4430-45-863a95 95 0 0 1 111-98l859 151-116-320a65 65 0 0 1 20-73l941-762-212-99a65 65 0 0 1-34-79l186-572-542 115a65 65 0 0 1-73-38l-105-247-423 454a65 65 0 0 1-111-57l204-1052-327 189a65 65 0 0 1-91-27l-332-652-332 652a65 65 0 0 1-91 27l-327-189 204 1052a65 65 0 0 1-111 57l-423-454-105 247a65 65 0 0 1-73 38l-542-115 186 572a65 65 0 0 1-34 79l-212 99 941 762a65 65 0 0 1 20 73l-116 320 859-151a95 95 0 0 1 111 98l-45 863z"/>
  </g>
  <rect width="9600" height="4800" rx="480" ry="480" fill="none" stroke="#00000015" stroke-width="60"/>
</svg>
